<svg width="200px" height="200px" viewBox="0 0 200 200" version="1.1" xmlns="http://www.w3.org/2000/svg" xmlns:xlink="http://www.w3.org/1999/xlink">
                              <!-- Generator: Sketch 51.2 (57519) - http://www.bohemiancoding.com/sketch-->
                              <title>Frontend</title>
                              <desc>Created with Sketch.</desc>
                              <defs>
                                <linearGradient id="fe-linearGradient-1" x1="30.9335938%" y1="31.1699219%" x2="69.8867188%" y2="69.7148438%">
                                  <stop stop-color="#FFA8E8" offset="0%"></stop>
                                  <stop stop-color="#FFE6E6" offset="100%"></stop>
                                </linearGradient>
                                <clipPath id="fe-particle">
                                  <path id="feRect1" d="M84,81 L84,84 L87,84 L87,81 L84,81 Z M84,79 L87,79 C88.1045695,79 89,79.8954305 89,81 L89,84 C89,85.1045695 88.1045695,86 87,86 L84,86 C82.8954305,86 82,85.1045695 82,84 L82,81 C82,79.8954305 82.8954305,79 84,79 Z" fill="#FFFFFF" fill-rule="nonzero" data-svg-origin="85.5 82.5" transform="matrix(0,0,0,0,69.38444444444448,75.59333333333335)" style="transform-origin: 0px 0px 0px;"></path>
                                  <path id="feRect2" d="M90,120 L90,121 L91,121 L91,120 L90,120 Z M90,118 L91,118 C92.1045695,118 93,118.895431 93,120 L93,121 C93,122.104569 92.1045695,123 91,123 L90,123 C88.8954305,123 88,122.104569 88,121 L88,120 C88,118.895431 88.8954305,118 90,118 Z" fill="#FFFFFF" fill-rule="nonzero" data-svg-origin="90.5 120.5" transform="matrix(-0.99687,0.07903,-0.07903,-0.99687,185.16552432994305,264.7899826647529)" style="transform-origin: 0px 0px 0px;"></path>
                                  <path id="feRect3" d="M123,108 L123,109 L124,109 L124,108 L123,108 Z M123,106 L124,106 C125.104569,106 126,106.895431 126,108 L126,109 C126,110.104569 125.104569,111 124,111 L123,111 C121.895431,111 121,110.104569 121,109 L121,108 C121,106.895431 121.895431,106 123,106 Z" fill="#FFFFFF" fill-rule="nonzero" data-svg-origin="123.5 108.5" transform="matrix(0.26399,0,0,0.26399,89.05600000000008,78.75200000000008)" style=""></path>
                                  <path id="feRect4" d="M84,81 L84,84 L87,84 L87,81 L84,81 Z M84,79 L87,79 C88.1045695,79 89,79.8954305 89,81 L89,84 C89,85.1045695 88.1045695,86 87,86 L84,86 C82.8954305,86 82,85.1045695 82,84 L82,81 C82,79.8954305 82.8954305,79 84,79 Z" fill="#FFFFFF" fill-rule="nonzero" data-svg-origin="85.5 82.5" transform="matrix(0.02094,0.99978,-0.99978,0.02094,157.2313294866478,-19.50899807747618)" style="transform-origin: 0px 0px 0px;"></path>
                                </clipPath>
                              </defs>
                              <g id="Fe-Mask-Page-1" stroke="none" stroke-width="1" fill="none" fill-rule="evenodd">
                                <g id="feMask" clip-path="url(#fe-particle)">
                                  <rect id="feRectmask" fill="url(#fe-linearGradient-1)" x="0" y="0" width="200" height="200"></rect>
                                  <circle id="feCircleMask" fill="#FFFFFF" cx="100.5" cy="100.5" r="38.5" opacity=".7"></circle>
                                </g>
                              </g>
                            </svg>